<?xml version="1.0" encoding="utf-8"?>
<!-- Generator: Adobe Illustrator 25.4.1, SVG Export Plug-In . SVG Version: 6.00 Build 0)  -->
<svg version="1.1"
	 id="Capa_1" xmlns:cc="http://creativecommons.org/ns#" xmlns:dc="http://purl.org/dc/elements/1.1/" xmlns:inkscape="http://www.inkscape.org/namespaces/inkscape" xmlns:rdf="http://www.w3.org/1999/02/22-rdf-syntax-ns#" xmlns:sodipodi="http://sodipodi.sourceforge.net/DTD/sodipodi-0.dtd" xmlns:svg="http://www.w3.org/2000/svg"
	 xmlns="http://www.w3.org/2000/svg" xmlns:xlink="http://www.w3.org/1999/xlink" x="0px" y="0px" viewBox="0 0 416.4 416.4"
	 style="enable-background:new 0 0 416.4 416.4;" xml:space="preserve">
<style type="text/css">
	.st0{opacity:0.8;fill:#937A68;enable-background:new    ;}
	.st1{fill:#052C48;}
</style>
<circle class="st0" cx="209" cy="209.9" r="201.7"/>
<g>
	<path class="st1" d="M129.7,100.2c12.8,0,23.2,2.6,31.4,7.8c8.1,5.2,14.8,11.9,20,20c6.4,9.3,10.4,19.5,12.2,30.5
		c1.7,11,2.6,20,2.6,27c0,28.5-7.3,54.3-21.8,77.5c-14.5,23.2-37.2,42.1-67.9,56.6L98.4,304c18-7.5,33.5-19.4,46.6-35.7
		c13.1-16.2,19.6-32.8,19.6-49.6c0-7-0.9-13.1-2.6-18.3c-9.3,7.6-20,11.3-32.2,11.3c-15.1,0-28.2-4.9-39.2-14.8
		C79.5,187,74,173.3,74,155.9c0-16.2,5.5-29.6,16.5-40.1C101.6,105.4,114.6,100.2,129.7,100.2z M277.8,100.2
		c12.8,0,23.2,2.6,31.4,7.8c8.1,5.2,14.8,11.9,20,20c6.4,9.3,10.5,19.5,12.2,30.5c1.7,11,2.6,20,2.6,27c0,28.5-7.3,54.3-21.8,77.5
		c-14.5,23.2-37.2,42.1-67.9,56.6l-7.8-15.7c18-7.5,33.5-19.4,46.6-35.7c13.1-16.2,19.6-32.8,19.6-49.6c0-7-0.9-13.1-2.6-18.3
		c-9.3,7.6-20,11.3-32.2,11.3c-15.1,0-28.2-4.9-39.2-14.8c-11-9.9-16.6-23.5-16.6-40.9c0-16.2,5.5-29.6,16.6-40.1
		C249.6,105.4,262.7,100.2,277.8,100.2z"/>
</g>
</svg>
