<?xml version="1.0" encoding="utf-8"?>
<!-- Generator: Adobe Illustrator 25.4.1, SVG Export Plug-In . SVG Version: 6.00 Build 0)  -->
<svg version="1.1"
	 id="Capa_1" xmlns:cc="http://creativecommons.org/ns#" xmlns:dc="http://purl.org/dc/elements/1.1/" xmlns:inkscape="http://www.inkscape.org/namespaces/inkscape" xmlns:rdf="http://www.w3.org/1999/02/22-rdf-syntax-ns#" xmlns:sodipodi="http://sodipodi.sourceforge.net/DTD/sodipodi-0.dtd" xmlns:svg="http://www.w3.org/2000/svg"
	 xmlns="http://www.w3.org/2000/svg" xmlns:xlink="http://www.w3.org/1999/xlink" x="0px" y="0px" viewBox="0 0 416.4 416.4"
	 style="enable-background:new 0 0 416.4 416.4;" xml:space="preserve">
<style type="text/css">
	.st0{opacity:0.8;fill:#7E1E1B;enable-background:new    ;}
	.st1{fill:#073551;}
</style>
<circle class="st0" cx="209" cy="209.9" r="201.7"/>
<g>
	<path class="st1" d="M141.4,116.5c10.9,0,19.8,2.2,26.7,6.6s12.6,10.1,17,17c5.5,7.9,8.9,16.6,10.4,26c1.4,9.4,2.2,17,2.2,23
		c0,24.3-6.2,46.3-18.6,66s-31.7,35.9-57.8,48.2l-6.6-13.3c15.3-6.4,28.5-16.5,39.7-30.4c11.2-13.8,16.7-27.9,16.7-42.3
		c0-6-0.8-11.2-2.2-15.6c-7.9,6.5-17,9.6-27.4,9.6c-12.9,0-24-4.2-33.4-12.6c-9.5-8.4-14.1-20.1-14.1-34.9
		c0-13.8,4.7-25.2,14.1-34.2C117.5,120.9,128.6,116.5,141.4,116.5z M267.6,116.5c10.9,0,19.8,2.2,26.7,6.6c6.9,4.4,12.6,10.1,17,17
		c5.5,7.9,8.9,16.6,10.4,26s2.2,17,2.2,23c0,24.3-6.2,46.3-18.6,66c-12.4,19.8-31.7,35.9-57.8,48.2l-6.6-13.4
		c15.3-6.4,28.5-16.5,39.7-30.4c11.2-13.8,16.7-27.9,16.7-42.3c0-6-0.8-11.2-2.2-15.6c-7.9,6.5-17,9.6-27.4,9.6
		c-12.9,0-24-4.2-33.4-12.6c-9.4-8.4-14.1-20-14.1-34.8c0-13.8,4.7-25.2,14.1-34.2C243.6,120.9,254.7,116.5,267.6,116.5z"/>
</g>
</svg>
