<?xml version="1.0" encoding="utf-8"?>
<!-- Generator: Adobe Illustrator 25.4.1, SVG Export Plug-In . SVG Version: 6.00 Build 0)  -->
<svg version="1.1"
	 id="Capa_1" xmlns:cc="http://creativecommons.org/ns#" xmlns:dc="http://purl.org/dc/elements/1.1/" xmlns:inkscape="http://www.inkscape.org/namespaces/inkscape" xmlns:rdf="http://www.w3.org/1999/02/22-rdf-syntax-ns#" xmlns:sodipodi="http://sodipodi.sourceforge.net/DTD/sodipodi-0.dtd" xmlns:svg="http://www.w3.org/2000/svg"
	 xmlns="http://www.w3.org/2000/svg" xmlns:xlink="http://www.w3.org/1999/xlink" x="0px" y="0px" viewBox="0 0 416.4 416.4"
	 style="enable-background:new 0 0 416.4 416.4;" xml:space="preserve">
<g>
	<path d="M79.5,122.7c1.3,0,1.9,0.5,1.9,1.4c-6.1,68.7-9.1,113.7-9.1,135.1c0,8.8,0.6,15.3,1.7,19.3c-1,1.5-2.7,3.1-5.3,5
		c-4.4,2.9-7.5,4.7-9.2,5.4v0.1h0.1c12.1-1.8,21.7-2.8,29-2.8c5.7,0,9.1,1,10.3,2.9v0.7c-0.6,0.7-1.2,1.1-1.9,1.1h-0.6
		c-0.5,0-1-0.4-1.7-1.3c-1.2-0.6-3.1-1-5.7-1c-5.7,0-19.2,1.8-40.4,5.5h-1c-0.9,0-1.5-0.3-1.8-1v-0.4c0-0.7,0.7-1.4,2.1-2.2
		c6.7-1.3,13.9-4.9,21.5-10.8c1.1-0.9,1.7-1.5,1.7-1.7c-1-5.9-1.5-14.2-1.5-25.1v-0.8c0-25.8,2.2-68.4,6.5-127.8
		C76.6,123.3,77.8,122.7,79.5,122.7z M90.3,113.9h3c5.6,0,9,1,10.1,2.9v0.7c-0.5,0.7-1.1,1.1-1.9,1.1h-0.6c-0.6,0-1.1-0.5-1.7-1.5
		c-1.4-0.6-3.2-0.8-5.4-0.8h-0.3c-6,0-19.6,1.9-40.8,5.6h-0.6c-0.8,0-1.4-0.3-1.8-1v-0.4c0-1.4,2.7-2.4,8.2-2.9
		C72.3,115.1,82.8,113.9,90.3,113.9z"/>
	<path d="M91.3,204.4h0.6c0.9,0.1,1.4,0.5,1.4,1c-1.5,10.6-2.2,17.1-2.2,19.5v0.1h0.1c5.6-9.5,9.8-14.2,12.6-14.2
		c2.1,0,3.3,2.7,3.6,8.1c-0.1,4,0.4,6.8,1.5,8.5c0.3,0.3,0.7,0.4,1,0.4h0.3c2.1,0,7-3.6,14.6-10.9c0-0.2,0.5-0.4,1.6-0.5
		c0.5,0,0.9,0.2,1.2,0.6l-0.1,0.5c-2.2,2.3-4.9,4.8-8.2,7.5c-4.6,3.4-8,5-10.2,5c-2.8-0.1-4.4-2.1-4.7-5.9c-0.3-5.3-0.6-7.9-1-7.9
		c0-0.3-0.3-0.5-0.8-0.6c-1.6,0-4.7,4.6-9.4,13.8c-1.6,3-2.7,4.5-3.3,4.5c-0.3,0.2-0.7,0.3-1.2,0.3h-0.7c-1.1-0.3-1.6-1.1-1.6-2.5
		v-1.9c0.2-5.3,1-13.4,2.6-24.3C89.6,204.7,90.4,204.3,91.3,204.4z"/>
	<path d="M135.6,206.6h1.5c1.5,0,2.5,1.2,3,3.5c0,3.3-2.3,6.2-6.8,8.7c-0.9,0.4-2.5,0.9-4.8,1.3c-1.3,3.5-2,5.8-2,7v1.2
		c0,2.1,1.3,3.3,4,3.8c3.3,0,8.4-3.4,15.4-10.3c1.7-1.7,3.4-3.8,5.2-6.2l0.8,0.2c0.4,0.5,0.6,0.9,0.4,1.3v0.3
		c-1.2,3.5-5.6,8-13.3,13.6c-3.8,2.2-6.7,3.3-8.9,3.3h-1c-3.3,0-5.5-1.9-6.6-5.8c-0.1-0.4-0.2-0.9-0.2-1.5v-1.3
		c0-5,2.8-10.5,8.5-16.7C133,207.4,134.6,206.6,135.6,206.6z M136.5,195.2l0.1,0.4c0.2,0.6-0.4,1.4-1.7,2.4
		c-2.9,2.8-4.9,4.6-6.2,5.6h-0.2c-0.6,0.1-1.2-0.4-1.7-1.5l-0.1-0.3c-0.2-0.7,0-1.2,0.6-1.6c2.7-2.3,5-4.4,6.9-6.3
		c0-0.1,0-0.1,0.3-0.2l0.3-0.1C135.4,193.6,135.9,194.1,136.5,195.2z M130.5,216.2h0.1c1.8-0.7,3-1.9,3.8-3.7
		c0.3-0.7,0.4-1.3,0.4-1.8c-1.2,0.7-2.3,1.9-3.5,3.8C130.8,215.5,130.5,216.1,130.5,216.2z"/>
	<path d="M160.5,201.7h1.2c1.2,0.2,1.7,0.6,1.7,1.3c0,0.9-1.4,1.6-4.2,2.3c-2.7,2.2-4,4.7-4,7.4c0,2.1,2.1,5.2,6.2,9.3
		c1.1,1.9,1.7,3.1,1.7,3.6h0.2c7.5-6.6,11.8-9.9,12.9-9.9h1.1c0.2,0,0.4,0.2,0.6,0.6v0.4l-13.7,11.6c-0.6,0.3-1.2,1.8-1.7,4.4
		c-1.4,3.2-3.7,6.3-6.9,9.3c-2.2,1.8-4,2.8-5.3,2.8h-0.6c-0.8,0-1.3-0.3-1.7-1v-0.6c0-2.2,3.9-7,11.8-14.4v-0.9
		c0-2.3-2.4-5.3-7.2-8.8c-1.5-1.8-2.3-3.5-2.3-5.3v-0.4c0-4.5,2.7-8.1,8-11C159.1,201.9,159.9,201.7,160.5,201.7z M151.4,242v0.2
		c3.5-3.3,5.6-5.9,6.5-7.8h-0.2C154.6,237.6,152.4,240.1,151.4,242z"/>
	<path d="M299.1,113.6h1.3c0.3,0,0.5,0.2,0.5,0.5v0.8c-6.7,10.9-14.7,32.5-23.9,65c-10,33.3-18.7,64.9-26.1,94.6
		c-4.1,14.5-7.3,21.8-9.7,21.8c-0.9,0.3-1.7,0.5-2.2,0.5c-9.1,0-17.1-31.4-23.9-94.1c-3-30.5-4.5-54-4.5-70.7v-2.7
		c0-1.7,1.4-2.7,4.3-2.9c0.7,0,1.8,0.6,3.2,1.9l-0.3,1.3c0,32.1,4,74.6,12.1,127.7c3.1,16.8,6.3,28.2,9.7,34.1l1.3,1.1
		c3.2-5.4,6.7-17.2,10.4-35.4c18-68.4,32.1-114,42.5-136.8C296.1,115.9,297.8,113.6,299.1,113.6z"/>
	<path d="M290.3,206.6h1.5c1.5,0,2.5,1.2,3,3.5c0,3.3-2.3,6.2-6.8,8.7c-0.9,0.4-2.5,0.9-4.8,1.3c-1.3,3.5-2,5.8-2,7v1.2
		c0,2.1,1.3,3.3,4,3.8c3.3,0,8.4-3.4,15.4-10.3c1.7-1.7,3.4-3.8,5.2-6.2l0.8,0.2c0.4,0.5,0.6,0.9,0.4,1.3v0.3
		c-1.2,3.5-5.6,8-13.3,13.6c-3.8,2.2-6.7,3.3-8.9,3.3h-1c-3.3,0-5.5-1.9-6.6-5.8c-0.1-0.4-0.2-0.9-0.2-1.5v-1.3
		c0-5,2.8-10.5,8.5-16.7C287.7,207.4,289.3,206.6,290.3,206.6z M285.2,216.2h0.1c1.8-0.7,3-1.9,3.8-3.7c0.3-0.7,0.4-1.3,0.4-1.8
		c-1.2,0.7-2.3,1.9-3.5,3.8C285.5,215.5,285.2,216.1,285.2,216.2z"/>
	<path d="M315.1,206h1.1c1.3,0,2.5,1,3.8,2.9c0.8-0.6,1.6-0.9,2.3-0.9h1c2.1,0,3.5,2.5,4.3,7.4c0.2,2.1,0.3,4,0.3,5.6
		c0,2.4-0.2,5.3-0.5,8.6c6-6.2,10.7-10.4,14-12.7c1.3-0.8,2.3-1.3,3.1-1.5c0.6,0,1.1,0.3,1.3,0.8v0.4c0,0.1-1.9,1.5-5.6,4.2
		c-5.9,5.1-10.3,9.6-13.3,13.4c0,3.5-1.3,10.8-3.8,21.7c-2.7,9.7-6.6,17.2-11.6,22.7c-2.3,1.9-4.1,2.9-5.6,2.9h-0.6
		c-2.3-0.5-3.5-2.2-3.5-5.2v-1.8c0-6.9,4.8-17.2,14.5-31.1c4.1-5.3,6.5-8.4,7.2-9.3c0.4-3,0.6-6.3,0.6-9.9v-2
		c-0.1-6.4-0.8-9.6-2.1-9.6c-0.9,0.4-2.8,3.2-5.5,8.4c-4,6.3-7.7,9.4-11.3,9.4c-1.5,0-2.4-1.4-2.7-4.2v-0.4c0-4.3,2.1-9.6,6.3-15.9
		C311.4,207.2,313.5,206,315.1,206z M304.8,274.7c0.2,2.3,0.8,3.4,1.9,3.4h0.3c2.9,0,6.3-4.6,10.1-13.7c1.8-4.5,3.2-9.4,4.3-14.7
		c0.8-4.1,1.4-7.5,1.7-10.3c-4.6,5.6-8.7,11.8-12.5,18.7C306.6,265.4,304.8,270.9,304.8,274.7z M306.7,226.2v0.3l0.1,0.3
		c2.1-1.7,4.3-4.6,6.6-8.7c1.7-3.1,3.2-5.5,4.5-7.3l-1.1,0.1h-0.7c-1-0.2-1.5-0.6-1.5-1.2h-0.2c-3.1,3.3-5.4,7.9-7.1,13.9
		C307,224.4,306.7,225.3,306.7,226.2z"/>
	<path d="M353.5,208h0.8c1.4,0,2.5,0.9,3.4,2.6c1-0.6,1.8-1,2.4-1h0.1c0.6,0,1.2,0.4,1.6,1.3c-2.1,9.3-3.2,15.5-3.2,18.7v1.1
		c0,0.3,0,0.5-0.1,0.7c0.3,2.2,0.7,3.3,1.3,3.3h0.3c2.2-0.6,6-4.8,11.6-12.4c2.7-4.4,4.5-6.6,5.3-6.6h0.6c0.6,0,0.9,0.2,1.1,0.6v0.4
		c-9,13-15.5,19.7-19.5,20h-1c-1.8,0-2.7-1.7-2.9-5l-0.2-1.2c0-2.6,0.7-7.3,2-13.8h-0.3c-1.7,3-4.6,6.6-8.9,10.6
		c-2.7,1.8-4.7,2.8-6.1,2.8c-1.8-0.3-2.8-1.1-2.8-2.4v-1.6c0.3-3.5,2.3-8,6.3-13.4C348.5,209.6,351.2,208,353.5,208z M344.3,225.5
		l0.3,0.2h0.2c2.6-2.5,5.5-6.1,8.7-11c0.9-1,1.3-1.6,1.3-1.7c-0.5,0-1.1-0.4-1.8-1.3c-1.2,0-3.2,2.5-6.1,7.6
		C345.2,222.6,344.3,224.6,344.3,225.5z"/>
</g>
</svg>
