<?xml version="1.0" encoding="utf-8"?>
<!-- Generator: Adobe Illustrator 25.4.1, SVG Export Plug-In . SVG Version: 6.00 Build 0)  -->
<svg version="1.1" id="Capa_1" xmlns="http://www.w3.org/2000/svg" xmlns:xlink="http://www.w3.org/1999/xlink" x="0px" y="0px"
	 viewBox="0 0 185 50" style="enable-background:new 0 0 185 50;" xml:space="preserve">
<style type="text/css">
	.st0{fill:#0D1B2B;}
</style>
<g>
	<path class="st0" d="M13.6,9.1v0.8c-0.9,0-1.6,0.1-2,0.3c-0.5,0.2-0.8,0.5-0.9,1c-0.1,0.5-0.2,1.3-0.2,2.3v20.8
		c0,1,0.1,1.8,0.2,2.3s0.5,0.8,0.9,1c0.4,0.2,1.1,0.3,2,0.3v0.8c-0.8-0.1-1.7-0.1-2.9-0.1c-1.1,0-2.3,0-3.5,0c-1.4,0-2.6,0-3.8,0
		c-1.2,0-2.1,0-2.8,0.1V38c0.9-0.1,1.6-0.2,2-0.3c0.4-0.2,0.7-0.5,0.9-1c0.2-0.5,0.2-1.3,0.2-2.3V13.5c0-1-0.1-1.8-0.2-2.3
		c-0.2-0.5-0.5-0.8-0.9-1c-0.5-0.2-1.1-0.3-2-0.3V9.1c0.7,0,1.7,0.1,2.8,0.1c1.2,0,2.4,0,3.8,0c1.2,0,2.3,0,3.5,0
		C11.9,9.1,12.8,9.1,13.6,9.1z"/>
	<path class="st0" d="M32.4,16.5c1.2,0,2.1,0.1,2.9,0.4c0.7,0.3,1.3,0.7,1.7,1.2c0.4,0.5,0.8,1.2,1,2.1c0.2,0.8,0.3,2,0.3,3.4v11.3
		c0,1.2,0.2,2,0.6,2.4c0.4,0.4,1.1,0.6,2.1,0.6v0.9c-0.5,0-1.3-0.1-2.4-0.1c-1.1,0-2.1-0.1-3.1-0.1c-1.1,0-2.1,0-3.1,0.1
		c-1,0-1.8,0.1-2.3,0.1v-0.9c0.8,0,1.4-0.2,1.8-0.6s0.5-1.2,0.5-2.4V21.8c0-0.7-0.1-1.3-0.2-1.8c-0.1-0.5-0.4-0.9-0.8-1.2
		c-0.4-0.3-0.9-0.4-1.6-0.4c-1.2,0-2.2,0.5-3,1.4c-0.8,0.9-1.2,2.1-1.2,3.5v11.7c0,1.2,0.2,2,0.5,2.4c0.3,0.4,0.9,0.6,1.7,0.6v0.9
		c-0.5,0-1.2-0.1-2.2-0.1c-1,0-2-0.1-3-0.1c-1.1,0-2.2,0-3.3,0.1c-1.1,0-2,0.1-2.5,0.1v-0.9c1,0,1.7-0.2,2.1-0.6
		c0.4-0.4,0.6-1.2,0.6-2.4V21.7c0-1.3-0.2-2.2-0.6-2.8c-0.4-0.6-1.1-0.9-2.1-0.9v-0.9c0.9,0.1,1.8,0.1,2.6,0.1c1.2,0,2.3,0,3.3-0.1
		c1-0.1,2-0.2,2.8-0.4v3.8c0.7-1.4,1.7-2.4,2.9-3C29.6,16.8,30.9,16.5,32.4,16.5z"/>
	<path class="st0" d="M54.3,16.5c2.5,0,4.4,0.7,5.8,2.2c1.4,1.5,2.1,3.8,2.1,7.1H48.3L48.3,25h8.6c0-1.4-0.1-2.6-0.3-3.8
		c-0.2-1.2-0.5-2.1-0.9-2.8c-0.4-0.7-1-1-1.7-1c-1,0-1.8,0.6-2.5,1.8c-0.7,1.2-1.1,3.3-1.2,6.1l0.1,0.3c0,0.3,0,0.7-0.1,1
		c0,0.4,0,0.7,0,1.1c0,1.9,0.3,3.5,0.8,4.7c0.5,1.2,1.2,2.1,2.1,2.6s1.7,0.8,2.6,0.8c0.8,0,1.8-0.2,2.8-0.6c1-0.4,1.9-1.3,2.8-2.7
		l0.8,0.3c-0.3,1.1-0.9,2.1-1.6,3.1c-0.7,1-1.7,1.8-2.8,2.5c-1.1,0.6-2.5,1-4,1c-1.9,0-3.6-0.4-5-1.2c-1.5-0.8-2.6-2-3.4-3.7
		c-0.8-1.7-1.2-3.8-1.2-6.3c0-2.6,0.4-4.8,1.3-6.5c0.9-1.7,2.1-3,3.7-3.9C50.5,16.9,52.3,16.5,54.3,16.5z M58.6,4.5
		c0.5,0.4,0.7,0.9,0.8,1.5s-0.2,1.2-0.6,1.8c-0.4,0.6-1,1.1-1.6,1.5c-0.6,0.4-1.4,1-2.3,1.6c-0.9,0.6-1.9,1.5-3.2,2.7l-0.5-0.4
		c0.8-1.5,1.5-2.8,1.8-3.8c0.4-1,0.7-1.9,1-2.6c0.3-0.7,0.7-1.4,1.1-1.9c0.4-0.6,1-0.9,1.7-1S58.1,4,58.6,4.5z"/>
	<path class="st0" d="M73.8,16.5c1.2,0,2.2,0.1,3.1,0.4c0.9,0.3,1.5,0.6,1.9,0.9c1,0.6,1.5,0.2,1.8-1.3h0.9
		c-0.1,0.8-0.1,1.7-0.1,2.9c0,1.1,0,2.6,0,4.5h-0.9c-0.1-1-0.4-2.1-0.8-3.1c-0.4-1-1-1.8-1.7-2.5c-0.7-0.6-1.7-1-2.9-1
		c-0.8,0-1.5,0.2-2.1,0.7c-0.6,0.5-0.8,1.1-0.8,2c0,0.8,0.3,1.6,0.8,2.2c0.5,0.6,1.2,1.2,2,1.8c0.8,0.6,1.6,1.2,2.5,1.8
		c1.4,1,2.6,2.1,3.5,3.1c1,1,1.4,2.4,1.4,4.1c0,1.3-0.4,2.4-1.1,3.3c-0.7,0.9-1.7,1.7-2.9,2.2c-1.2,0.5-2.5,0.8-4,0.8
		c-0.8,0-1.6-0.1-2.2-0.3c-0.7-0.2-1.2-0.4-1.7-0.6c-0.4-0.2-0.7-0.3-1-0.5c-0.3-0.2-0.6-0.3-0.9-0.4c-0.3-0.1-0.5,0-0.7,0.3
		c-0.2,0.3-0.4,0.7-0.5,1.2h-0.9c0.1-0.9,0.1-2,0.1-3.3c0-1.3,0-3,0-5.1h0.9c0.2,1.5,0.5,2.8,0.9,4c0.4,1.2,1.1,2.1,1.8,2.7
		c0.8,0.7,1.7,1,2.9,1c0.7,0,1.4-0.2,2-0.7c0.6-0.5,0.9-1.2,0.9-2.3c0-1.2-0.4-2.3-1.2-3.1c-0.8-0.8-1.8-1.7-3-2.6
		c-0.9-0.7-1.7-1.4-2.5-2.2c-0.8-0.7-1.4-1.5-2-2.4c-0.5-0.9-0.8-1.8-0.8-2.9c0-1.3,0.3-2.3,1-3.2c0.7-0.9,1.6-1.5,2.7-2
		C71.3,16.7,72.5,16.5,73.8,16.5z"/>
	<path class="st0" d="M120.5,9.1v0.8c-0.6,0.2-1.3,0.7-2,1.5c-0.7,0.8-1.3,1.9-1.9,3.5l-8.9,24c-0.2,0-0.5,0-0.7,0s-0.5,0-0.8,0
		c-0.2,0-0.5,0-0.7,0s-0.5,0-0.7,0L94.2,12.6c-0.4-1-0.8-1.7-1.3-2.1c-0.5-0.4-0.9-0.6-1.3-0.6V9.1c0.8,0,1.8,0.1,3,0.1s2.3,0,3.4,0
		c1.3,0,2.5,0,3.6,0c1.1,0,2.1-0.1,2.8-0.1v0.8c-1.4,0.1-2.3,0.3-2.7,0.7c-0.4,0.4-0.3,1.4,0.3,2.8l7.6,19.4l-0.9,1l5.8-15.6
		c0.8-2.1,1.1-3.8,1.2-5c0-1.2-0.3-2.1-0.9-2.6c-0.6-0.5-1.5-0.8-2.6-0.8V9.1c1,0,1.8,0.1,2.7,0.1s1.7,0,2.6,0c0.6,0,1.2,0,1.7,0
		S120.1,9.1,120.5,9.1z"/>
	<path class="st0" d="M129.1,16.5c2.5,0,4.4,0.7,5.8,2.2c1.4,1.5,2.1,3.8,2.1,7.1h-13.8l-0.1-0.8h8.6c0-1.4-0.1-2.6-0.3-3.8
		c-0.2-1.2-0.5-2.1-0.9-2.8c-0.4-0.7-1-1-1.7-1c-1,0-1.8,0.6-2.5,1.8c-0.7,1.2-1.1,3.3-1.2,6.1l0.1,0.3c0,0.3,0,0.7-0.1,1
		c0,0.4,0,0.7,0,1.1c0,1.9,0.3,3.5,0.8,4.7c0.5,1.2,1.2,2.1,2.1,2.6s1.7,0.8,2.6,0.8c0.8,0,1.8-0.2,2.8-0.6c1-0.4,1.9-1.3,2.8-2.7
		l0.8,0.3c-0.3,1.1-0.9,2.1-1.6,3.1c-0.7,1-1.7,1.8-2.8,2.5c-1.1,0.6-2.5,1-4,1c-1.9,0-3.6-0.4-5-1.2s-2.6-2-3.4-3.7
		c-0.8-1.7-1.2-3.8-1.2-6.3c0-2.6,0.4-4.8,1.3-6.5c0.9-1.7,2.1-3,3.7-3.9C125.4,16.9,127.2,16.5,129.1,16.5z"/>
	<path class="st0" d="M148.5,46.7c-1.7,0-3.3-0.1-4.6-0.4s-2.4-0.7-3.2-1.3c-0.8-0.6-1.2-1.3-1.2-2.2c0-0.9,0.4-1.6,1.2-2.3
		c0.8-0.7,1.9-1.2,3.5-1.6l0.4,0.7c-0.5,0.4-0.9,0.9-1.2,1.4c-0.2,0.5-0.4,1-0.4,1.5c0,1.2,0.5,2.1,1.6,2.7c1.1,0.6,2.5,0.9,4.4,0.9
		c1.3,0,2.4-0.2,3.4-0.5c1-0.3,1.8-0.8,2.4-1.5s0.9-1.5,0.9-2.5c0-0.8-0.3-1.5-0.9-2.1c-0.6-0.6-1.8-0.9-3.7-0.9h-2.6
		c-1.1,0-2.1-0.1-3-0.4c-0.9-0.3-1.5-0.7-2-1.2c-0.5-0.5-0.7-1.2-0.7-2.1c0-1.2,0.5-2.2,1.4-3.1c0.9-0.9,2.3-1.7,4.1-2.5l0.4,0.3
		c-0.5,0.3-1,0.7-1.5,1.1s-0.7,0.9-0.7,1.4c0,0.9,0.6,1.3,1.7,1.3h4.6c2.3,0,4.3,0.4,5.8,1.3c1.5,0.9,2.3,2.3,2.3,4.3
		c0,1.4-0.4,2.6-1.3,3.8c-0.9,1.2-2.2,2.1-4.1,2.8S151.3,46.7,148.5,46.7z M148.9,29.8c-2.4,0-4.4-0.5-6-1.6
		c-1.6-1.1-2.4-2.8-2.4-5.1c0-2.3,0.8-4,2.4-5.1c1.6-1.1,3.6-1.6,6-1.6c2.4,0,4.4,0.5,6,1.6c1.6,1.1,2.4,2.8,2.4,5.1
		c0,2.3-0.8,4-2.4,5.1S151.3,29.8,148.9,29.8z M148.9,29.1c0.8,0,1.3-0.4,1.8-1.3s0.6-2.4,0.6-4.6c0-2.2-0.2-3.8-0.6-4.6
		c-0.4-0.9-1-1.3-1.8-1.3c-0.7,0-1.3,0.4-1.7,1.3c-0.4,0.9-0.7,2.4-0.7,4.6c0,2.2,0.2,3.8,0.7,4.6C147.6,28.7,148.2,29.1,148.9,29.1
		z M155.4,20.1l-0.8-0.3c0.4-1.1,1.1-2,2-2.7c0.9-0.7,2-1.1,3-1.1c0.9,0,1.6,0.2,2,0.7c0.5,0.5,0.7,1.1,0.7,1.9
		c0,0.8-0.2,1.5-0.7,1.9c-0.4,0.4-1,0.6-1.5,0.6c-0.5,0-0.9-0.2-1.3-0.5s-0.6-0.8-0.7-1.5c-0.1-0.7,0.2-1.6,0.7-2.7l0.3,0.3
		c-1.1,0.4-1.9,0.8-2.4,1.4C156.3,18.5,155.8,19.2,155.4,20.1z"/>
	<path class="st0" d="M169.5,39.1c-1.9,0-3.2-0.5-4.1-1.5c-0.8-1-1.3-2.2-1.3-3.6c0-1.2,0.3-2.2,0.8-2.9s1.3-1.4,2.1-1.9
		c0.9-0.5,1.8-0.9,2.8-1.2s1.9-0.6,2.8-1c0.9-0.3,1.6-0.7,2.1-1.1s0.8-1,0.8-1.6v-3.3c0-0.7-0.1-1.4-0.4-2c-0.2-0.6-0.6-1-1.1-1.3
		c-0.5-0.3-1.1-0.5-1.9-0.5c-0.6,0-1.1,0.1-1.7,0.2c-0.6,0.2-1,0.4-1.4,0.8c0.8,0.3,1.4,0.7,1.8,1.3c0.4,0.6,0.7,1.2,0.7,2
		c0,1-0.3,1.7-1,2.3c-0.7,0.6-1.4,0.8-2.3,0.8c-1,0-1.8-0.3-2.3-0.9c-0.5-0.6-0.8-1.4-0.8-2.3c0-0.8,0.2-1.5,0.6-2
		c0.4-0.5,1-1,1.7-1.5c0.8-0.4,1.7-0.8,2.8-1c1.1-0.3,2.3-0.4,3.6-0.4s2.5,0.1,3.5,0.4c1,0.3,1.9,0.7,2.6,1.4
		c0.6,0.6,1.1,1.4,1.3,2.4c0.2,0.9,0.3,2.1,0.3,3.5v11.4c0,0.7,0.1,1.1,0.2,1.4c0.1,0.3,0.4,0.4,0.7,0.4c0.3,0,0.5-0.1,0.8-0.2
		c0.3-0.1,0.5-0.3,0.7-0.5l0.4,0.7c-0.6,0.5-1.3,0.9-2,1.2c-0.8,0.3-1.6,0.4-2.6,0.4c-1.7,0-2.8-0.3-3.3-1c-0.5-0.7-0.8-1.5-0.9-2.4
		c-0.7,1.1-1.6,2-2.6,2.6S170.9,39.1,169.5,39.1z M172.7,36.4c0.5,0,1-0.1,1.5-0.4s0.9-0.7,1.4-1.3v-8.6c-0.3,0.6-0.8,1-1.4,1.4
		c-0.6,0.4-1.2,0.8-1.8,1.2c-0.6,0.4-1.2,1-1.6,1.7c-0.4,0.7-0.6,1.6-0.6,2.7c0,1.2,0.3,2.1,0.8,2.6C171.4,36.1,172,36.4,172.7,36.4
		z"/>
</g>
</svg>
